<svg id="Layer_1" data-name="Layer 1" xmlns="http://www.w3.org/2000/svg" viewBox="0 0 1200 200"><defs><style>.cls-1,.cls-2{fill:#404041;}.cls-2{stroke:#404041;stroke-miterlimit:10;stroke-width:0.83px;}</style></defs><title>ps-logo-email</title><path class="cls-1" d="M192.19,149.15q1.49,2.53,5.76,3.58t13.53,1.05c.35,0,.53.34.53,1s-.18,1.05-.53,1.05q-7.15,0-11.17-.17l-15.19-.18-11.7.18q-3.3.17-8.9.17c-.23,0-.35-.35-.35-1.05s.12-1,.35-1a38.21,38.21,0,0,0,9.69-.88,6.12,6.12,0,0,0,4.19-3.4c.76-1.69,1.13-4.28,1.13-7.77V60.9c0-3.49-.37-6-1.13-7.68a6.47,6.47,0,0,0-4.19-3.4,35.3,35.3,0,0,0-9.69-1c-.23,0-.35-.35-.35-1s.12-1,.35-1l8.73.17q7.33.35,11.7.35c2.67,0,5.93-.18,9.77-.52q13.62-.52,14.67-.53,15.88,0,25.57,7.16t9.69,21.82q0,11.52-5.67,19.38a34.7,34.7,0,0,1-14.49,11.69,45.09,45.09,0,0,1-18.24,3.85,34.09,34.09,0,0,1-8.56-.88c-.35,0-.52-.29-.52-.87a2.26,2.26,0,0,1,.26-1c.18-.35.38-.46.61-.35a25.76,25.76,0,0,0,6.29.7,27.25,27.25,0,0,0,19.46-7.51q7.94-7.5,7.94-21.82,0-13.78-7.5-21.64T205,48.86a42.36,42.36,0,0,0-9.25.7,5.54,5.54,0,0,0-3.93,3.23q-1.12,2.53-1.13,8.46V141Q190.71,146.63,192.19,149.15Z"/><path class="cls-1" d="M293,141a18.29,18.29,0,0,0,1.05,7.16,5.93,5.93,0,0,0,3.93,3.14,34.17,34.17,0,0,0,9.16.88H326q9.94,0,16-6.2t7.77-17c0-.24.23-.35.7-.35a2.69,2.69,0,0,1,1,.17c.29.12.44.3.44.53a178.35,178.35,0,0,0-1.75,23.91,3.06,3.06,0,0,1-.53,2,2.68,2.68,0,0,1-2.09.61H266.82c-.24,0-.35-.35-.35-1.05s.11-1,.35-1a38.21,38.21,0,0,0,9.69-.88,5.86,5.86,0,0,0,4.1-3.4,21.53,21.53,0,0,0,1.05-7.77V60.9a20.8,20.8,0,0,0-1.05-7.68,6.18,6.18,0,0,0-4.1-3.4,35.3,35.3,0,0,0-9.69-1c-.24,0-.35-.35-.35-1s.11-1,.35-1l8.55.17q7.33.35,11.88.35,5.06,0,12.39-.35l8.2-.17c.35,0,.53.34.53,1s-.18,1-.53,1a35.44,35.44,0,0,0-9.6,1,6.17,6.17,0,0,0-4.19,3.49A21.76,21.76,0,0,0,293,61.08Z"/><path class="cls-1" d="M485.2,154.82q0,1.05-.87,1.05c-2.33,0-5.7-.11-10.13-.35q-7-.35-9.95-.35-3.84,0-9.77.35c-4,.24-6.87.35-8.73.35-.47,0-.7-.35-.7-1.05s.23-1,.7-1c4.3,0,7.45-.41,9.43-1.23a4.27,4.27,0,0,0,3-4.18c0-1.63-.77-4.14-2.28-7.51L435.63,98.09H402.8l-15,35.61a27,27,0,0,0-2.44,9.78q0,10.29,17.11,10.3c.58,0,.87.34.87,1s-.29,1.05-.87,1.05c-2.1,0-5-.11-8.73-.35q-6.64-.35-11.87-.35-4.55,0-10.48.35c-3.49.24-6.4.35-8.73.35q-.87,0-.87-1.05c0-.7.29-1,.87-1a17.23,17.23,0,0,0,8.3-1.84,18.9,18.9,0,0,0,6.46-6.45,86.19,86.19,0,0,0,6.72-13.36L421,45.19c.12-.23.5-.37,1.14-.43s1,.09,1.13.43L464.43,132a115,115,0,0,0,7.24,13.53,21.76,21.76,0,0,0,5.94,6.45,12.18,12.18,0,0,0,6.72,1.84C484.91,153.78,485.2,154.12,485.2,154.82Zm-51.32-60.4-15.54-33-14,33Z"/><path class="cls-1" d="M617.18,47.81c0,.7-.18,1-.53,1q-7.33,0-10.65,4t-3.31,12.91v92c0,.35-.27.58-.79.7a1.17,1.17,0,0,1-1.13-.17L520.29,61.08l-1.4-1.75v77.51q0,9.09,3.15,13t10.29,3.93c.35,0,.53.34.53,1s-.18,1.05-.53,1.05q-4.37,0-6.63-.17l-8.73-.18-8.9.18q-2.44.17-7.16.17c-.35,0-.52-.35-.52-1.05s.17-1,.52-1q7.51,0,10.65-3.93t3.14-13V55.14a24,24,0,0,0-7-4.88,17.4,17.4,0,0,0-6.81-1.4c-.35,0-.52-.35-.52-1s.17-1,.52-1l6.46.17c1.28.12,3.2.17,5.76.17s4.65,0,6.29-.17,2.9-.17,3.84-.17a2.82,2.82,0,0,1,1.92.61,15.3,15.3,0,0,1,2.09,2.7,54,54,0,0,0,4,5.76l67.38,82.4V65.79q0-8.9-3.06-12.91t-10.21-4c-.23,0-.35-.35-.35-1s.12-1,.35-1l6.81.17q5.24.35,8.56.35,3.13,0,8.72-.35l7.16-.17C617,46.77,617.18,47.11,617.18,47.81Z"/><path class="cls-1" d="M645.89,55.49q-5.5,5.59-7.77,19c-.12.24-.49.35-1.13.35s-1-.17-1-.52q.69-4.72,1.57-15.28t.87-16.15q0-.87,1-.87t1.05.87q0,3.86,9.25,3.85,14.83.51,35.09.52,10.47,0,22-.35l11.7-.17a36.3,36.3,0,0,0,9.34-.88,5.36,5.36,0,0,0,3.93-3.49.93.93,0,0,1,1-.7c.58,0,.88.24.88.7-.36,3.26-.7,8.35-1,15.28s-.53,12.48-.53,16.67c0,.35-.32.52-1,.52s-1-.17-1.13-.52q-.52-13.44-5.59-18.94t-16.76-5.5a61.05,61.05,0,0,0-11.17.7,6.23,6.23,0,0,0-4.54,3q-1.21,2.28-1.22,7.68v80.48q0,5.42,1.22,7.86a6.68,6.68,0,0,0,4.72,3.31,49.07,49.07,0,0,0,11,.88c.35,0,.53.34.53,1s-.18,1.05-.53,1.05c-3.95,0-7-.06-9.25-.17l-13.61-.18-13.1.18c-2.32.11-5.53.17-9.6.17-.23,0-.35-.35-.35-1.05s.12-1,.35-1a49.23,49.23,0,0,0,11-.88,6.89,6.89,0,0,0,4.8-3.4q1.31-2.53,1.31-7.77V60.9q0-5.4-1.22-7.59a6.12,6.12,0,0,0-4.54-2.79,69.85,69.85,0,0,0-11.17-.61Q651.4,49.91,645.89,55.49Z"/><path class="cls-1" d="M777.42,79.06a31.23,31.23,0,0,0,8.12,8.47q4.8,3.41,13.18,8.46,9.25,5.6,14.23,9.26a33.83,33.83,0,0,1,8.55,9.33,24.83,24.83,0,0,1,3.58,13.53A27.86,27.86,0,0,1,808.58,154Q800.46,158,789.12,158a52.45,52.45,0,0,1-24.61-6.11,2.51,2.51,0,0,1-1.14-1.23,10.2,10.2,0,0,1-.44-2.09l-2.26-23.74c-.12-.46.14-.76.78-.87a1.08,1.08,0,0,1,1.31.52A48.62,48.62,0,0,0,773,146.1q7.59,9.08,20.17,9.07a22.89,22.89,0,0,0,14.75-4.8q6-4.8,6-15.27a25.8,25.8,0,0,0-3.41-13.53,32.84,32.84,0,0,0-8.37-9.43q-5-3.75-13.53-9a130.21,130.21,0,0,1-13.27-8.64,32.5,32.5,0,0,1-8.21-9.34,25.16,25.16,0,0,1-3.31-13.09,24.27,24.27,0,0,1,4.62-14.93,28.09,28.09,0,0,1,12.05-9.25,41.17,41.17,0,0,1,15.8-3A50.55,50.55,0,0,1,816.7,49q2.79,1,2.79,3l1,20.08c0,.46-.32.7-1,.7s-1-.24-1.13-.7A32.24,32.24,0,0,0,815.13,61a25.68,25.68,0,0,0-8.29-9.6,22.38,22.38,0,0,0-13.36-3.93q-9.78,0-14.57,5.68a21,21,0,0,0-4.8,14A21.16,21.16,0,0,0,777.42,79.06Z"/><path class="cls-1" d="M969.8,154.82c0,.7-.12,1.05-.35,1.05q-5.6,0-8.73-.17l-12.22-.18-12.57.18c-2.09.11-4.89.17-8.38.17-.35,0-.52-.35-.52-1.05s.17-1,.52-1a40.22,40.22,0,0,0,10-.88,6.16,6.16,0,0,0,4.28-3.4,20.2,20.2,0,0,0,1.13-7.77V100.88h-67v40.85A20.2,20.2,0,0,0,877,149.5a6.18,6.18,0,0,0,4.28,3.4,40.27,40.27,0,0,0,10,.88c.35,0,.53.34.53,1s-.18,1.05-.53,1.05q-5.41,0-8.55-.17l-12.57-.18-12,.18q-3.32.17-8.72.17c-.24,0-.35-.35-.35-1.05s.11-1,.35-1a40.43,40.43,0,0,0,9.86-.88,6.18,6.18,0,0,0,4.36-3.4q1.14-2.53,1.14-7.77V60.9c0-3.49-.38-6-1.14-7.68a6.48,6.48,0,0,0-4.27-3.4,36.35,36.35,0,0,0-9.78-1c-.23,0-.35-.35-.35-1s.12-1,.35-1l8.73.17q7.34.35,11.87.35,5.05,0,12.74-.35l8.38-.17c.35,0,.53.34.53,1s-.18,1-.53,1a34.23,34.23,0,0,0-9.86,1A6.72,6.72,0,0,0,877,53.49a20.14,20.14,0,0,0-1.13,7.76V97.39h67V61.25a20.14,20.14,0,0,0-1.13-7.76,6.7,6.7,0,0,0-4.28-3.58q-3.13-1-10-1c-.35,0-.52-.35-.52-1s.17-1,.52-1l8.38.17q7.68.35,12.57.35,4.54,0,12.22-.35l8.73-.17c.23,0,.35.34.35,1s-.12,1-.35,1a37.24,37.24,0,0,0-9.86,1,6.54,6.54,0,0,0-4.37,3.4c-.76,1.64-1.13,4.19-1.13,7.68v80.83c0,3.49.37,6.08,1.13,7.77a6.2,6.2,0,0,0,4.37,3.4,40.32,40.32,0,0,0,9.86.88C969.68,153.78,969.8,154.12,969.8,154.82Z"/><path class="cls-1" d="M1068.25,129.51a1.63,1.63,0,0,1,.79.26c.29.18.44.32.44.44a161,161,0,0,0-1.58,23,2.23,2.23,0,0,1-2.62,2.62H992.14c-.35,0-.53-.35-.53-1.05s.18-1,.53-1a38.21,38.21,0,0,0,9.69-.88,5.86,5.86,0,0,0,4.1-3.4,21.53,21.53,0,0,0,1.05-7.77V60.9a20.8,20.8,0,0,0-1.05-7.68,6.18,6.18,0,0,0-4.1-3.4,35.3,35.3,0,0,0-9.69-1c-.35,0-.53-.35-.53-1s.18-1,.53-1h70a1.39,1.39,0,0,1,1.57,1.57l.53,21.64c0,.24-.35.35-1,.35s-1-.11-1-.35q-.71-9.24-5.76-14.4t-13.44-5.15h-10.65a33.88,33.88,0,0,0-8.9.87,5.94,5.94,0,0,0-4,3.23,18.85,18.85,0,0,0-1,7.25V97.39h21.29q8.39,0,12-2.88t3.58-9.51c0-.24.35-.35,1-.35s1,.11,1,.35l-.18,14.14q0,5.24.18,7.85l.17,8.21c0,.35-.35.52-1,.52s-1.05-.17-1.05-.52q0-7.68-3.75-11t-12.48-3.32h-20.77V141a18.2,18.2,0,0,0,1,7.07,5.85,5.85,0,0,0,3.93,3.23,31.5,31.5,0,0,0,8.64.88h14a18.47,18.47,0,0,0,13.88-5.94q5.67-5.94,7.59-16.41C1067.38,129.63,1067.67,129.51,1068.25,129.51Z"/><path class="cls-1" d="M1128,156c-1.74-.11-3.81-.23-6.2-.34s-5.09-.18-8.11-.18l-11.87.18q-3.15.17-8.73.17c-.24,0-.35-.35-.35-1.05s.11-1,.35-1a39.21,39.21,0,0,0,9.77-.88,6.16,6.16,0,0,0,4.28-3.4c.76-1.69,1.13-4.28,1.13-7.77V60.9c0-3.49-.37-6-1.13-7.68a6.49,6.49,0,0,0-4.19-3.4,35.3,35.3,0,0,0-9.69-1c-.23,0-.35-.35-.35-1s.12-1,.35-1l8.73.17q7.33.35,11.7.35,6.63,0,13.09-.52c5.12-.24,8.67-.35,10.65-.35q18.15,0,32.21,7a53.09,53.09,0,0,1,21.73,19A49.27,49.27,0,0,1,1199,99.49q0,16.94-7.94,29.93a53.81,53.81,0,0,1-21.56,20.08,63.49,63.49,0,0,1-29.68,7.07Q1134.59,156.57,1128,156Zm34.83-7.94a41.24,41.24,0,0,0,16.84-17.28q6.11-11.43,6.11-27.49A64.7,64.7,0,0,0,1180,75.74a47,47,0,0,0-16.32-19.55Q1153.09,49,1139,49a59,59,0,0,0-11.7.88,9.47,9.47,0,0,0-5.93,3.49q-1.92,2.61-1.92,7.85v78.56q0,7.68,3.84,10.91t14.83,3.23A50.81,50.81,0,0,0,1162.78,148.1Z"/><path class="cls-2" d="M81.06,161.63c-6.48-1.14-11-6.22-13.53-12.06v8.11H65.22v-7.07c-2.67,5.62-7.54,9.91-14.23,10.49a1,1,0,0,1-1-.56,1.14,1.14,0,0,1-.16-.6c.24-8.79,7.69-15.14,15.39-17.89v-.12h2.31c8.41,2.44,15.55,9.38,15,18.6a1.11,1.11,0,0,1-.53.9l-.07,0a1.34,1.34,0,0,1-.24.12,2,2,0,0,1-.36,0h0C81.2,161.63,81.13,161.66,81.06,161.63Z"/><path class="cls-2" d="M67.53,66.15H65.22v0A12,12,0,0,1,56,60.85a1.27,1.27,0,0,1-.67-1.1C53,55.55,52.48,50,53.42,44.93a1.15,1.15,0,0,1,1.7-.69c2.09,1.43,4.17,2.87,6.27,4.3,1.3-2.11,2.6-4.24,3.92-6.36a1.17,1.17,0,0,1,2,0c1.48,2,3,4,4.44,5.94l5.79-3.88a1,1,0,0,1,1.28.11.86.86,0,0,1,.42.58C80.57,54.18,78.34,65.54,67.53,66.15Z"/><path class="cls-2" d="M65.56,181.72c-5.8-6.91-4.37-16.65-.34-24v0h2.31c5.07,7.42,5.93,17.11-.34,24a1,1,0,0,1-.65.34A.94.94,0,0,1,65.56,181.72Z"/><path class="cls-2" d="M57.13,78l.07,0,.24-.12a1.36,1.36,0,0,1,.36,0h0a.81.81,0,0,1,.22,0A10.72,10.72,0,0,1,65.22,83V66.15h2.31V90H65.22c-4.9-1.6-8.95-5.76-8.62-11.18A1.08,1.08,0,0,1,57.13,78Z"/><path class="cls-2" d="M67.71,96.68c0,.1,0,0,0,0Zm40.7-39.78a23.76,23.76,0,0,0-8.34-18.09L69.88,10.52A4.45,4.45,0,0,0,67,9.44a4.63,4.63,0,0,0-3,1.09L33.45,38.77A23.79,23.79,0,0,0,25,57v47.69H65.22V90h2.31v.56a10.3,10.3,0,0,1,8-5,.94.94,0,0,1,1,.56,1.1,1.1,0,0,1,.16.59c-.14,5.27-4.5,9.12-9.13,10.84v7.11h40.88ZM71.57,8.63l30.19,28.31a26.2,26.2,0,0,1,9.18,20v47.79h16.9A1.27,1.27,0,0,1,129.1,106a1.25,1.25,0,0,1-1.26,1.26h-16.9v41.87a44.26,44.26,0,0,1-88.51,0V107.21H4.26A1.25,1.25,0,0,1,3,106a1.26,1.26,0,0,1,1.26-1.26H22.43V57a26.24,26.24,0,0,1,9.36-20.12L62.31,8.64A7.11,7.11,0,0,1,71.57,8.63Zm5.32,133c-4.26-.75-7.42-3.84-9.36-7.57v7.9H65.22v-7.45a12.73,12.73,0,0,1-10.06,6.74,1,1,0,0,1-1-.56,1.24,1.24,0,0,1-.16-.6c.18-6.46,5.57-11.15,11.22-13.22V107.21H25v41.87a41.73,41.73,0,0,0,83.46,0V107.21H67.53v19.56c6.11,1.89,11.24,7,10.83,13.71a1.08,1.08,0,0,1-.55.9s0,0,0,0l-.25.12a1.29,1.29,0,0,1-.35.05h0A1.48,1.48,0,0,1,76.89,141.6Z"/></svg>